<?xml version="1.0" encoding="iso-8859-1"?>
<!-- Uploaded to: SVG Repo, www.svgrepo.com, Generator: SVG Repo Mixer Tools -->
<svg fill="#cee5a2" height="800px" width="800px" version="1.1" id="Layer_1" xmlns="http://www.w3.org/2000/svg" xmlns:xlink="http://www.w3.org/1999/xlink" 
	 viewBox="0 0 511.999 511.999" xml:space="preserve">
<g>
	<g>
		<path d="M201.035,290.933l-0.487-0.621c-4.282-5.473-12.188-6.437-17.66-2.156c-5.473,4.281-6.437,12.188-2.156,17.66l0.56,0.715
			c2.483,3.143,6.162,4.782,9.881,4.782c2.73,0,5.481-0.886,7.79-2.71C204.414,304.296,205.341,296.384,201.035,290.933z"/>
	</g>
</g>
<g>
	<g>
		<path d="M510.744,417.584c-1.008-2.059-2.574-3.509-4.207-5.015c-1.357-1.252-2.675-2.546-3.969-3.862
			c-2.139-2.174-4.211-4.414-6.225-6.705c-2.692-3.061-5.283-6.211-7.772-9.438c-3.019-3.911-5.891-7.936-8.613-12.06
			c-3.12-4.73-6.041-9.593-8.745-14.572c-2.998-5.52-5.729-11.185-8.17-16.974c-2.651-6.288-4.957-12.72-6.887-19.266
			c-1.206-4.092-2.264-8.228-3.175-12.397c-1.224-5.605-2.096-11.817-2.827-20.146c-0.683-7.745-2.014-15.765-3.96-23.841
			c-9.593-39.796-33.684-80.52-67.838-114.673c-43.688-43.689-97.078-70.169-144.742-72.203
			c-12.562-31.953-43.454-53.321-78.405-53.321c-0.445,0-0.897,0.004-1.344,0.01c-37.834,0.583-70.917,27.24-80.28,63.331
			L7.75,123.821c-4.822,2.004-7.904,6.78-7.745,11.999c0.159,5.22,3.526,9.799,8.462,11.506l86.893,30.067
			c0.309,0.107,0.621,0.198,0.933,0.279c10.315,10.072,23.002,17.327,36.819,21.075c3.128,26.283,13.315,54.156,29.755,81.226
			c3.607,5.939,11.345,7.831,17.283,4.222c5.938-3.607,7.829-11.345,4.221-17.283c-16.336-26.897-25.662-54.291-26.971-79.222
			c-0.315-5.997-4.823-10.934-10.768-11.792c-13.898-2.005-26.684-8.981-35.994-19.632c-10.038-11.51-15.188-26.281-14.501-41.577
			c0.092-1.99,0.288-4.017,0.582-6.008c4.209-28.293,28.944-49.962,57.535-50.401c27.199-0.423,51.102,17.618,58.084,43.881
			c1.497,5.635,6.678,9.505,12.496,9.345c42.517-1.154,94.542,23.734,135.73,64.921c30.924,30.923,52.648,67.424,61.17,102.78
			c1.654,6.864,2.783,13.645,3.355,20.149c0.559,6.349,1.439,14.738,3.309,23.301c7.185,32.999,21.607,59.346,34.836,77.994
			c-57.266-17.98-104.138-47.067-136.954-85.304c-32.079-37.378-50.021-83.305-49.225-126.004
			c0.131-6.947-5.397-12.684-12.344-12.813c-6.912-0.15-12.684,5.397-12.813,12.344c-0.911,48.789,19.242,100.86,55.286,142.861
			c19.059,22.208,42.324,41.56,69.201,57.733c-8.804-2.004-17.72-4.163-26.618-6.484c-0.141-0.038-0.281-0.078-0.424-0.111
			c-9.233-2.419-17.58-4.769-25.502-7.178c-0.19-0.058-0.382-0.112-0.575-0.16c-17.352-4.392-34.976-11.958-52.052-22.203
			c-0.229-0.146-0.458-0.292-0.696-0.423c-16.923-10.234-33.295-23.095-48.316-38.11c-4.913-4.913-12.88-4.91-17.791,0.003
			c-4.911,4.914-4.91,12.88,0.004,17.791c15.487,15.48,32.358,28.907,49.886,39.856l16.05,40.81l-40.998,44.527
			c-4.706,5.111-4.378,13.07,0.733,17.776c2.418,2.227,5.473,3.326,8.518,3.326c3.394,0,6.778-1.365,9.258-4.06l46.334-50.322
			c3.265-3.544,4.217-8.642,2.453-13.125l-8.331-21.184c9.474,3.996,19.004,7.239,28.482,9.654
			c6.429,1.952,13.12,3.863,20.292,5.798l2.992,7.609l-40.998,44.527c-4.706,5.111-4.378,13.07,0.733,17.776
			c2.418,2.227,5.473,3.326,8.518,3.326c3.394,0,6.778-1.365,9.258-4.06l46.334-50.322c2.851-3.096,3.936-7.377,2.992-11.398
			c67.924,15.742,130.431,22.423,131.128,22.496c0.016,0.001,0.031,0.001,0.048,0.003c3.052,0.288,6.104-0.463,8.613-2.247
			c0.164-0.116,0.325-0.237,0.483-0.361c0.966-0.761,1.931-1.769,2.639-2.807c0.465-0.682,0.865-1.413,1.186-2.166
			C512.419,424.74,512.312,420.787,510.744,417.584z M47.944,134.363l23.302-9.687c0.56,6.537,1.876,12.938,3.904,19.101
			L47.944,134.363z"/>
	</g>
</g>
<g>
	<g>
		<path d="M160.715,90.563c-6.948,0-12.58,5.632-12.58,12.58v0.843c0,6.948,5.633,12.58,12.58,12.58
			c6.947,0,12.58-5.632,12.58-12.58v-0.843C173.295,96.195,167.662,90.563,160.715,90.563z"/>
	</g>
</g>
</svg>
